<?xml version="1.0" encoding="UTF-8" standalone="no"?>
<svg id="svg2" style="font-color:white;" xmlns:rdf="http://www.w3.org/1999/02/22-rdf-syntax-ns#" xmlns="http://www.w3.org/2000/svg" height="1409pt" width="1005pt" version="1.1"  xmlns:cc="http://creativecommons.org/ns#" xmlns:dc="http://purl.org/dc/elements/1.1/" viewBox="0 0 1005 1409">
<path id="path4" d="m721.12 17.586c-23.599-0.01107-47.118 0.37148-70.385 0.66406-110.6 7.8875-221.41 36.951-316.62 94.551-55.712 35.675-103.74 84.723-136.5 142.34-17.925 40.412-23.602 84.775-24.164 128.62-35.225-1.475-70.288-6.0367-105.56-6.6367-9.8-0.85-21.588 0.0121-29-7.3379 7.7125-13.075-23.137-11.262-26.262-2.1875 6.275 10.612 16.776 19.825 28.113 24.787 100.65-8.3875 202.92 8.3625 299.06 39 26.575 6.925 50.461 19.714 75.148 31.139 60.55 32.025 125.41 63.975 167.11 120.47 3.7 3.5875-1.1004 7.8117-3.2754 10.762-31.225 31.125-26.612 84.838-4.0742 118.62-53.625-6.1125-98.462-39.2-140.75-70.1-40.675-29.888-75.637-67.15-103.04-109.56-8.9625-20.275-15.389-44.763-28.664-61.088-0.525 40.4 19.901 81.701 42.863 115.7-37.312-35.962-68.012-79.638-78.812-131.05-1.4125-3.6125-6.15-25.449-12.312-15.637-4.9625 46.738 13.475 91.388 34.688 131.81-52.012-31.975-81.899-89.825-103.64-145.15 0.4375-5.45-10.877-4.7008-5.5391 1.9492 9.7 45.362 35.214 86.338 64.602 121.62 40.1 37.4 79.662 76.813 128.54 102.74 35.562 18.025 73.95 29.312 110.85 44.1 83.45 34.775 175.87 41.264 265.1 38.451-43.05 15.4-95.037 5.15-138.39 2.5 43.425 56.325 149.99 59.199 187.21-6.3262 15.738-7.6875 33.749-8.2613 50.674-11.736 59.788-8.45 113.31-37.462 168.16-60.562 53.45-26.3 94.426-70.425 140.18-107.34-40.55 89.9-111.68 166.1-199.03 212.2-59.662 32.825-124.53 56.113-191.09 70.15-72.85 10.65-148.05 0.0367-215.17-29.988-54.662-17.45-102.94-49.3-152.29-77.688-39.362-25-73.088-57.499-106.31-89.949-39.375-41.5-64.125-93.688-91.875-142.8-6.1625 8.175 4.4738 19.476 7.0488 27.764 22.288 51.4 53.887 97.975 95.037 136.09 101.64 99.375 233.19 159.69 363.83 211.09-4.175 99.188-0.53789 202.28-6.0879 302.35-70.775 12.638-143.61 29.65-201.8 74.25-55.975 44.475-102.12 106.72-110.81 179.34-2.5125 41.262 0.32578 84.251 18.176 122.18 31.375 69.075 94.863 118.04 161.43 151.07 61.575 30.075 129.8 48.951 198.8 45.014 129.86 6.175 263.44-54.438 339.15-160.84 45.662-66.562 46.487-155.6 14.637-228.04-32.062-65.425-90.898-114.84-156.46-144.75-51.962-22.525-108.41-31.014-163.78-40.826-5.975-2.3125-3.8371-10.55-4.7871-15.787 2.0125-91.225 7.1-182.42 8.8125-273.67 0.0625-9.125 9.15-10.238 15.625-12.801 93.338-38.512 193.22-70.299 269.5-139.32 71.012-69.675 129.6-152.16 171.24-242.48 23.35-55.425 30.089-118.34 18.389-177.56-34.8-125.91-143.2-207.77-269.54-253.07-99.95-34.458-163.66-37.065-247.94-37.104zm-26.861 8.3066c54.833-0.06094 109.67 3.0691 163.94 10.869 61.536 12.465 111.98 26.925 162.86 53.438 54.962 25.15 101.09 65.463 140.41 110.81 54.762 56.325 72.387 141.33 54.975 216.74-15.15 66.988-63.874 119.4-113.05 164.4-108.08 97.8-255.34 146.04-399.88 143.95 30.112-5.75 61.82-4.0043 90.82-14.742 15.775-16.525 12.267-38.033 13.255-58.821 0.6375-63.238-57.149-124.2-122.49-115.12-33.775-3.2-59.489 20.037-83.889 38.787-111-108.27-263.14-173-417.2-188.99-1.4625-44.9 4.3992-90.612 24.449-131.26 21.354-35.986 38.677-58.926 63.477-84.076 16.386-14.473 21.312-18.179 36.387-31.074 53.888-40.025 117.04-64.749 180.96-84.012 55.6-16.478 96.091-24.559 150.17-29.838 28.845-1.0822 36.535-1.05 54.812-1.0703zm18.25 80.984c-2.6839 0.005-5.366 0.0254-8.0488 0.0606-108.14 2.275-219.34 27.287-308.79 90.324-1.325 2.325-0.23867 4.9129 2.6738 3.6504 20-5.8875 37.812-17.362 56.787-25.762 111.56-47.15 237.44-49.537 355.58-30.85-35.825 7.45-86.862 5.3746-124.56 18.1 2.2125 8.5 17.025 3.2 23.15 5.875 119.9-0.95 242.54 21.588 347.2 81.5 49.95 34.875 89.713 87.312 98.025 148.75-4.175 52-16.337 106.02-53.6 144.86-4.95 7.9375-22.226 18.35-16.201 26.213 57.85-35.438 97.776-98.624 106.43-166.11 0.325-42.762-7.8637-86.039-30.764-122.64-52.7-62.46-123.2-111.45-202.58-132.41-78.49-27.52-162.11-41.72-245.31-41.56zm-75.391 55.225c-7.0219-0.0734-15.772 1.2359-18.859 1.0859-72.3-2.15-143.15 18.201-207.32 50.238-44.388 26.575-92.237 54.498-116.2 102.59-3.425 13.162-14.476 25.927-9.7383 40.102 5.525-0.7625 2.0629-10.888 4.8379-14.525 20.65-25.062 37.775-54.313 65.375-72.613 84.1-61.575 187.84-90.212 290.4-99.662 3.825-5.6812-1.4703-7.1375-8.4922-7.2109zm265.5 96.432c-9.1012 0.0175-18.115 0.35938-26.918 0.91602-42.4 1.6875-82.824 15.663-124.82 20.176-48.2 7.8125-97.449 3.6379-145.2-5.2871-76.238-18.3-162.96-9.7125-227.59 37.438-5.3125 3.55-9.8262 8.4371-11.514 14.725 31.45-20.925 64.088-41.401 102.09-47.863 59.35-16.375 120.04 2.9141 178.6 13.039 52.762 2.3875 106.61 2.8609 158.25-9.9141 64.862-15.175 134.61-18.286 198.04 4.6016 12.3 5.95 22.45 15.049 32.412 24.236 4.475 2.6625 4.7871-3.8 2.4746-6.25-34.963-36.513-86.674-45.911-135.82-45.816zm-0.48828 39.676c-7.6111-0.0192-15.212 0.37657-22.754 1.1914-8.4 2.0125-24.138-1.4887-28.125 7.1113 52.038 2.8375 117.05 1.0137 153.47 47.514 37.688 35.562 20.726 92.1 3.1133 133.81-14.75 33.75-43.837 58.474-64.912 87.449 7.8625 1.6125 19.136-9.0629 27.086-12.775 40.087-31.425 76.225-70.312 95.713-118.01 8.95-21.375 6.0371-46.238-3.2129-66.926-35.803-51.612-98.406-79.209-160.38-79.365zm221.57 75.67c7.55 89.188-59.849 161.47-126.14 211.16-7.1875 8.7125 7.9367 2.4746 11.199 0.0371 53.838-33.688 96.7-85.774 118.22-145.61 6.0625-20.525 5.6129-49.6-3.2871-65.588zm-412.72 192.89c17.192 0.15179 35.297 2.7562 46.256 17.27 21.85 26.138 30.075 66.713 13.688 97.488-2.075-34.312-16.989-74.601-49.576-93.988-14.012-11.412-33.624-4.4754-49.049-11.088 7.2-7.0375 17.311-9.1367 27.023-9.5117 3.7711-0.11016 7.6908-0.20495 11.658-0.16992zm-27.48 312.2c19.9 12.3 42.499 15.801 65.137 8.8262-1.475 95.938-2.8359 192.05-8.7109 287.84-15.688 13.7-59.325 9.9887-53.812-18.174-0.61-92.9-0.23-185.74-2.61-278.53zm76.11 301.23c105.84 12.062 221.58 46.487 285.38 138.51 70.062 81.25 60.775 214.08-12.125 290.35-50.975 61.675-126.7 95.099-201.68 118.36-132.49 29.212-278.09-3.4875-382.22-91.438-48.4-37.762-83.812-93.799-91.287-155.17-4.4-48.162 5.0367-96.776 27.449-139.49 38.85-65.875 104.91-111.66 176.31-136.19 30.6-14.475 65.488-12.976 97.438-22.051 7.925-0.4 4.4758 9.4633-1.6367 9.3008-47.3 6.6125-95.114 17.05-137.14 40.562-1.5625 5.3 5.0746 1.4004 7.8496 1.2754 43.838-13.712 88.613-25.939 134.68-28.951 0.25 53.162-0.95 106.33-0.0625 159.48 2.825 0.375 5.8746 0.1113 6.1621-3.6387 19.85-56.988 18.012-118.26 17.85-177.76 12.1 18.738 38.014 24.125 53.764 6.4375 5.0375 60.512 2.9504 121.44 7.7129 181.96-0.9875 4.4625 4.4996 17.636 8.7246 9.8613 0.875-59.075 3.9121-118.4 0.59961-177.47 1.9125-7.4 11.837-3.5617 17.387-4.0742 49.55 6.075 97.564 21.6 143.95 39.475 17.112 2.8125 1.0004-5.7254-4.0371-10.65-44.762-21.388-93.352-34.387-142.85-38.199-5.2625 0.4875-22.648-4.0508-12.211-10.488zm244.94 122.89c-14.538 21.75-39.426 32.514-61.764 44.639-28.2 17.375-59.125 31.649-92.25 35.137-5.7375 6.075 5.9504 9.8387 10.525 12.326 48.912 22.15 101.6 0.2371 151.8-4.4004 16.6-5.9 0.375-28-0.4375-39.463 20.912 10.8 34.825 32.7 43.75 53.938 9.475 53.288-10.838 105.72-32.301 153.54-16.088 27.112-40.224 48.238-63.512 69.025-5.975 4.3 0.3625 7.4996 4.6875 4.8496 42.963-16.962 70.648-57.538 92.586-96.312 32.475-59.312 24.564-132.73-5.0488-191.46-11.012-17.788-28.75-35.475-48.037-41.812zm-599.08 49.25c-31.312 48.088-37.799 109.14-24.887 164.51 16.588 51.312 52.899 93.713 95.611 125.65 26.588 22.038 55.939 42.199 89.539 51.699 87.975 30.788 184.77 37.413 275.34 14.363 4.6625-3.5375 18.489-4.5383 16.977-11.551-25.55-0.3125-51.851 6.5742-76.826 4.5742 29.488-4.9625 59.312-10.687 86.287-24.137 7.0875-3.9375 21.639-3.0867 20.889-13.699-38.6 6.85-77.525 15.725-117.16 13.812-35.912-1.9-74.4 1.6621-107.46-15.15-26.1-10.775-55.626-17.588-76.863-36.938 25.1 6.7125 50.388 16.35 76.562 16.725-1.9875-30.762 7.5871-60.4 8.9121-90.912 0.275-3.425 0.32539-9.1008-4.1621-9.8008-17.375-4.2-34.836-8.2742-51.611-14.574-5.975-1.9125-13.95-5.7758-18.9 0.6367-26.3 22.462-53.826 43.475-79.176 67.062-10.6 12.988-26.886 3.6-38.486-2.1875-45.238-32.338-72.726-84.374-83.389-138.01-5.25-34.3 13.462-70.464 8.8125-102.08zm183.23 53.2c-15.325 1.125-29.438 12.426-29.775 28.676-1.8 38.638 33.625 66.962 66.775 78.725 60.5 19.788 134.97 25.113 188.47-14.949 4.1375-6.05 17.751-17.125 8.4258-21.713-41.425 31.4-100.34 37.838-150.06 22.312-28.862-9.7-58.2-28.914-66.188-60.076-3.9625-11.025-3.8379-29.737-17.65-32.975zm72.619 13.637c-0.31273 0.014-0.63125 0.042-0.95703 0.088-4.9375 8.7625 2.9887 21.588 8.5762 29.188 23.588 31.25 85.524 23.926 90.736-18.449-24.575 3.725-50.037 18.1-74.725 4.875-10.305-1.6711-13.936-16.129-23.631-15.701zm215.21 50.838c-26.588 50.275-80.424 82.102-136.11 89.227-0.9625 7.575 10.35 3.4242 14.912 1.6992 25.75 0.4625 49.325-11.338 72.85-20.238 24.85-13.288 40.512-38.012 52.25-62.75 0.9-2.825-0.0754-8.2875-3.9004-7.9375z" transform="scale(.8)"/>
</svg>
